<svg xmlns="http://www.w3.org/2000/svg" xmlns:xlink="http://www.w3.org/1999/xlink" width="1080" zoomAndPan="magnify" viewBox="0 0 810 809.999993" height="1080" preserveAspectRatio="xMidYMid meet" version="1.0">

    <style>
        .blink{
              transform-origin: center;fill: #ccdc46;
            transform-box: fill-box;
          animation:wings 0.8s infinite alternate-reverse;
          }
          @keyframes wings {
          from{
          transform: scale(0.7);
          }
          to{
          transform: scale(1);
        }
        }
    </style>

    <defs>
        <filter x="0%" y="0%" width="100%" height="100%" id="7128f726a4">
            <feColorMatrix values="0 0 0 0 1 0 0 0 0 1 0 0 0 0 1 0 0 0 1 0" color-interpolation-filters="sRGB" />
        </filter>
        <clipPath id="84afdb089d">
            <path d="M 25.597656 25.597656 L 784.402344 25.597656 L 784.402344 784.402344 L 25.597656 784.402344 Z M 25.597656 25.597656 " clip-rule="nonzero" />
        </clipPath>
        <clipPath id="8b91dba734">
            <path d="M 405 25.597656 C 195.460938 25.597656 25.597656 195.460938 25.597656 405 C 25.597656 614.539062 195.460938 784.402344 405 784.402344 C 614.539062 784.402344 784.402344 614.539062 784.402344 405 C 784.402344 195.460938 614.539062 25.597656 405 25.597656 Z M 405 25.597656 "
            clip-rule="nonzero" />
        </clipPath>
        <mask id="8f23f1632e">
            <g filter="url(#7128f726a4)">
                <rect x="-81" width="972" fill="#000000" y="-80.999999" height="971.999992" fill-opacity="0.1" />
            </g>
        </mask>
        <clipPath id="c6b9532135">
            <path d="M 0.597656 0.597656 L 759.402344 0.597656 L 759.402344 759.402344 L 0.597656 759.402344 Z M 0.597656 0.597656 " clip-rule="nonzero" />
        </clipPath>
        <clipPath id="fc263107a7">
            <path d="M 380 0.597656 C 170.460938 0.597656 0.597656 170.460938 0.597656 380 C 0.597656 589.539062 170.460938 759.402344 380 759.402344 C 589.539062 759.402344 759.402344 589.539062 759.402344 380 C 759.402344 170.460938 589.539062 0.597656 380 0.597656 Z M 380 0.597656 "
            clip-rule="nonzero" />
        </clipPath>
        <clipPath id="80435e8e82">
            <rect x="0" width="760" y="0" height="760" />
        </clipPath>
        <mask id="a95c2da9e4">
            <g filter="url(#7128f726a4)">
                <rect x="-81" width="972" fill="#000000" y="-80.999999" height="971.999992" fill-opacity="0.19" />
            </g>
        </mask>
        <clipPath id="61b1feabc5">
            <path d="M 0.472656 0.472656 L 461.527344 0.472656 L 461.527344 461.527344 L 0.472656 461.527344 Z M 0.472656 0.472656 " clip-rule="nonzero" />
        </clipPath>
        <clipPath id="a5f441e215">
            <path d="M 231 0.472656 C 103.683594 0.472656 0.472656 103.683594 0.472656 231 C 0.472656 358.316406 103.683594 461.527344 231 461.527344 C 358.316406 461.527344 461.527344 358.316406 461.527344 231 C 461.527344 103.683594 358.316406 0.472656 231 0.472656 Z M 231 0.472656 "
            clip-rule="nonzero" />
        </clipPath>
        <clipPath id="4684a66cbe">
            <rect x="0" width="462" y="0" height="462" />
        </clipPath>
        <clipPath id="e05c31b955">
            <path d="M 275.261719 275.261719 L 534.738281 275.261719 L 534.738281 534.738281 L 275.261719 534.738281 Z M 275.261719 275.261719 " clip-rule="nonzero" />
        </clipPath>
        <clipPath id="4cc0487228">
            <path d="M 405 275.261719 C 333.347656 275.261719 275.261719 333.347656 275.261719 405 C 275.261719 476.652344 333.347656 534.738281 405 534.738281 C 476.652344 534.738281 534.738281 476.652344 534.738281 405 C 534.738281 333.347656 476.652344 275.261719 405 275.261719 Z M 405 275.261719 "
            clip-rule="nonzero" />
        </clipPath>
        <clipPath id="4eb3691529">
            <path d="M 293.707031 293.707031 L 516.292969 293.707031 L 516.292969 516.292969 L 293.707031 516.292969 Z M 293.707031 293.707031 " clip-rule="nonzero" />
        </clipPath>
        <clipPath id="35132b6e3a">
            <path d="M 405 293.707031 C 343.535156 293.707031 293.707031 343.535156 293.707031 405 C 293.707031 466.464844 343.535156 516.292969 405 516.292969 C 466.464844 516.292969 516.292969 466.464844 516.292969 405 C 516.292969 343.535156 466.464844 293.707031 405 293.707031 Z M 405 293.707031 "
            clip-rule="nonzero" />
        </clipPath>
    </defs>
    <g clip-path="url(#84afdb089d)">
        <g clip-path="url(#8b91dba734)">
            <path fill="#ffffff" d="M 25.597656 25.597656 L 784.402344 25.597656 L 784.402344 784.402344 L 25.597656 784.402344 Z M 25.597656 25.597656 " fill-opacity="1" fill-rule="nonzero" />
        </g>
    </g>
    <g mask="url(#8f23f1632e)" class="blink">
        <g transform="matrix(1, 0, 0, 1, 25, 25)">
            <g clip-path="url(#80435e8e82)">
                <g clip-path="url(#c6b9532135)">
                    <g clip-path="url(#fc263107a7)">
                        <path fill="red" d="M 0.597656 0.597656 L 759.402344 0.597656 L 759.402344 759.402344 L 0.597656 759.402344 Z M 0.597656 0.597656 " fill-opacity="1" fill-rule="nonzero" />
                    </g>
                </g>
            </g>
        </g>
    </g>
    <g mask="url(#a95c2da9e4)">
        <g transform="matrix(1, 0, 0, 1, 174, 174)">
            <g clip-path="url(#4684a66cbe)">
                <g clip-path="url(#61b1feabc5)">
                    <g clip-path="url(#a5f441e215)">
                        <path fill="red" d="M 0.472656 0.472656 L 461.527344 0.472656 L 461.527344 461.527344 L 0.472656 461.527344 Z M 0.472656 0.472656 " fill-opacity="1" fill-rule="nonzero" />
                    </g>
                </g>
            </g>
        </g>
    </g>
    <g clip-path="url(#e05c31b955)">
        <g clip-path="url(#4cc0487228)">
            <path fill="#ffffff" d="M 275.261719 275.261719 L 534.738281 275.261719 L 534.738281 534.738281 L 275.261719 534.738281 Z M 275.261719 275.261719 " fill-opacity="1" fill-rule="nonzero" />
        </g>
    </g>
    <g clip-path="url(#4eb3691529)">
        <g clip-path="url(#35132b6e3a)">
            <path fill="red" d="M 293.707031 293.707031 L 516.292969 293.707031 L 516.292969 516.292969 L 293.707031 516.292969 Z M 293.707031 293.707031 " fill-opacity="1" fill-rule="nonzero" />
        </g>
    </g>
    <path fill="red" d="M 405 0 C 181.269531 0 0 181.433594 0 405 C 0 628.566406 181.269531 810 405 810 C 628.730469 810 810 628.566406 810 405 C 810 181.433594 628.730469 0 405 0 Z M 405 784.359375 C 195.476562 784.359375 25.640625 614.523438 25.640625 405 C 25.640625 195.476562 195.476562 25.640625 405 25.640625 C 614.523438 25.640625 784.359375 195.476562 784.359375 405 C 784.359375 614.523438 614.523438 784.359375 405 784.359375 Z M 405 784.359375 "
    fill-opacity="1" fill-rule="nonzero" />
</svg>