<svg height="512" viewBox="0 0 58 58" width="512" xmlns="http://www.w3.org/2000/svg"><g id="Page-1" fill="none" fill-rule="evenodd"><g id="053---Notifications" fill-rule="nonzero"><path id="Shape" d="m34 53c0 2.7614237-2.2385763 5-5 5h-24c-1.32608245 0-2.59785201-.5267842-3.53553391-1.4644661-.93768189-.9376819-1.46446609-2.2094515-1.46446609-3.5355339v-48c0-2.76142375 2.23857625-5 5-5h24c1.3260824 0 2.597852.5267842 3.5355339 1.46446609.9376819.9376819 1.4644661 2.20945146 1.4644661 3.53553391z" fill="#2fa8cc"/><path id="Shape" d="m34 5v2s-32.14 0-33.92 46.88c-.05186304-.2904951-.07862846-.5849148-.08-.88v-48c0-2.76142375 2.23857625-5 5-5h24c1.3260824 0 2.597852.5267842 3.5355339 1.46446609.9376819.9376819 1.4644661 2.20945146 1.4644661 3.53553391z" fill="#67b9cc"/><path id="Shape" d="m28 0-2.447 4.894c-.3386882.67778095-1.0313083 1.10597427-1.789 1.106h-13.528c-.7576917-.00002573-1.45031181-.42821905-1.789-1.106l-2.447-4.894z" fill="#3f5c6c"/><path id="Shape" d="m25 55h-16c-.55228475 0-1-.4477153-1-1s.44771525-1 1-1h16c.5522847 0 1 .4477153 1 1s-.4477153 1-1 1z" fill="#3f5c6c"/><path id="Shape" d="m20 23-11.474 6.12c-.3234232.1745653-.52502632.5124736-.52502632.88s.20160312.7054347.52502632.88l11.474 6.12v7c0 2.7614237 2.2385763 5 5 5h28c2.7614237 0 5-2.2385763 5-5v-28c0-2.7614237-2.2385763-5-5-5h-28c-2.7614237 0-5 2.2385763-5 5z" fill="#ecf0f1"/><path id="Shape" d="m50 38h-22c-.3147573 0-.6111456-.1481942-.8-.4s-.248132-.577833-.16-.88l2.48-7.37c.3187769-1.0880972.480411-2.2161684.48-3.35 0-4.9705627 4.0294373-9 9-9s9 4.0294373 9 9c-.000411 1.1338316.1612231 2.2619028.48 3.35l2.48 7.37c.088132.302167.0288544.6281942-.16.88s-.4852427.4-.8.4z" fill="#f0c419"/><path id="Shape" d="m42.87 38c.0893041.3257307.1330533.6622628.13 1 0 2.209139-1.790861 4-4 4s-4-1.790861-4-4c-.0030533-.3377372.0406959-.6742693.13-1" fill="#b19046"/></g></g></svg>