<svg xmlns="http://www.w3.org/2000/svg" version="1.1" xmlns:xlink="http://www.w3.org/1999/xlink" width="512" height="512" x="0" y="0" viewBox="0 0 512.083 512.083" style="enable-background:new 0 0 512 512" xml:space="preserve" class=""><circle r="256.0415" cx="256.0415" cy="256.0415" fill="#0d1722" shape="circle" transform="matrix(1,0,0,1,0,0)"></circle><g transform="matrix(0.7,0,0,0.7,76.81230010986329,76.80000000000001)"><path d="M45.041 332c24.814 0 45-20.186 45-45v-60c0-24.814-20.186-45-45-45s-45 20.186-45 45v60c0 24.814 20.186 45 45 45zm-15-105c0-8.276 6.724-15 15-15s15 6.724 15 15v60c0 8.276-6.724 15-15 15s-15-6.724-15-15zM150.041 239.715l34.6 92.285h40.4V182h-30v92.285L160.442 182h-40.401v150h30zM345.041 302h-60v-30h30v-30h-30v-30h60v-30h-90v150h90zM90.041 463.455l-30-60-30 60V362h-30v150h39.273l20.727-41.455L80.769 512h39.272V362h-30zM195.041 362c-24.814 0-45 20.186-45 45v105h30v-60h30v60h30V407c0-24.814-20.185-45-45-45zm-15 60v-15c0-8.276 6.724-15 15-15s15 6.724 15 15v15zM323.332 356.873l-23.291 46.582-23.291-46.582-26.836 13.418 35.127 70.254V512h30v-71.455l35.127-70.254z" fill="#ffffff" opacity="1" data-original="#000000" class=""></path><path d="m426.187 0-85.855 152h40.855v360h90V152h40.854z" fill="#ffffff" opacity="1" data-original="#000000" class=""></path></g></svg>