<svg version="1.2" xmlns="http://www.w3.org/2000/svg" viewBox="0 0 1140 492" width="500" height="216"><style>.a{fill:#33b559}.b{fill:#ee4243}.c{fill:#fefffe}.d{fill:#f4fcf7}.e{fill:#f6fcf7}.f{fill:#eefaf3}.g{fill:#fffefe}.h{fill:#fbf7f6}.i{fill:#fbf6f5}.j{fill:#fcf6f4}.k{fill:#fbf6f4}.l{fill:#f9e6e1}.m{fill:#dc6868}.n{fill:#e44a4e}.o{fill:#35b45a}.p{fill:#ec4445}</style><path fill-rule="evenodd" class="a" d="m223.5 472.5c-44.5-5.5-84.1-21.9-118.2-50.4-45.4-38-72.7-86.5-80.3-145.5-6.6-51.6 3.2-100.2 29.8-145 22-36.9 52.2-65.3 90.4-85.2 32.7-17 67.4-25.4 104.2-25.4 215-0.1 429.9-0.3 644.9 0.1 68.7 0.1 126.2 26.7 171.6 78.4 31.2 35.6 49.1 77.4 53.8 124.5 5.2 51.3-5.5 99.4-33.1 143.3-29.4 46.9-70.8 78.9-123.5 96-22 7.1-44.6 10.6-67.8 10.6-218 0-435.9 0-653.9-0.1-5.8 0-11.6-0.8-17.9-1.3zm546.8-358.7c-7.1 7.7-15.1 14.8-21.2 23.2-37.7 51.7-47.6 108.3-27.4 169.3 24.6 74.3 97.3 126.1 177.8 123.1 42.7-1.6 80.3-16 112.7-43.9 39.4-33.9 60.7-77.2 63.4-128.8 2.6-49.7-12.7-93.9-46.3-130.6-43.6-47.7-98.2-67.2-162.2-58.7-36.8 4.8-68.9 20.8-96.8 46.4zm-633.8 95.2c-3.7 7.8-8.9 15.2-10.8 23.3-5.1 21.6-1.7 41.9 14.2 58.5 14.3 14.9 32.8 17.8 52.5 15.7 10.3-1.2 19.7-4.9 27.7-11.6 15.1-12.6 21-29.4 20.9-48.6-0.1-25-14.3-46.7-35.8-54.4-25.3-9.2-51.9-2.8-68.7 17.1zm447.5 12.5c-17.8-1.2-33.2 3.7-42.2 19.9-8.5 15.3-8.2 31.7 1.1 46.7 9.9 16 25.9 19.7 43.5 18.2 10.8-0.9 20.7-4.6 28.8-12.8-4.3-4.3-8.3-8.4-12.3-12.5-12.5 7.6-24.3 9.2-34.6 4.8-6.5-2.9-10.6-8.6-10-14.8 20.4 0 40.8 0 61.2 0 3.4-24.5-7.1-47-35.5-49.5zm-326.8 3.5c0 26.4 0 52.8 0 79.3 6.9 0 13.2 0 19.5 0 0.2-1.2 0.4-2.2 0.4-3.2 0-12.8-0.2-25.6 0.1-38.4 0.3-12.9 9.5-22 21.3-21.7 11.1 0.2 18.3 8.8 18.4 21.8 0 6.7 0 13.3 0 20 0 7.1 0 14.2 0 21.5 7 0 13.4 0 19.9 0 0-16.7 0.7-33.1-0.2-49.3-0.8-13.2-7.2-24.2-19.9-29.7-12.8-5.5-25-3.4-36 5.4-1.2 1-2.5 1.7-4.2 2.8-0.4-3-0.4-5.2-1.1-7.2-0.3-1.1-1.7-2.7-2.7-2.7-5 0-10.1 0.3-15.5 1.4zm263.8 76.2c0-5 0.1-10-0.1-15-0.2-11.3 0.5-22.8-1.1-33.9-4.7-31.1-36.6-36.5-53.2-23.1-1.8 1.5-3.9 2.7-6.3 4.3-0.3-3-0.3-5.2-0.9-7.2-0.3-1.1-1.6-2.7-2.6-2.8-5.1-0.2-10.2-0.1-15.6-0.1 0 27.5 0 54.1 0 80.8 6.7 0 13 0 19.7 0 0-13-0.2-25.7 0.2-38.3 0.1-4.6 1-9.4 2.7-13.6 3.2-8 11.5-12.2 20.3-11.2 8.2 0.9 14.1 6.3 15.7 15.1 0.9 4.5 0.9 9.3 1 13.9 0.1 11.3 0 22.6 0 34.5 6.4 0 12.4 0.1 18.3-0.1 0.7 0 1.2-1.6 1.9-3.3zm-143.1-37.7c0-24.2 0-48.5 0-72.9-7 0-13.3 0-19.8 0 0 38.1 0 75.8 0 113.7 6.7 0 13.1 0 19.8 0 0-13.5 0-26.7 0-40.8zm21.4-22c0 20.9 0 41.8 0 63.2 6.3 0 11.9 0.2 17.5-0.2 1 0 2.8-2.2 2.8-3.3q0.2-37.2 0-74.3c0-1.2-2.2-3.3-3.5-3.4-4.4-0.4-8.9 0-13.4-0.1-2.6 0-3.5 1.2-3.5 3.6 0.1 4.5 0.1 9 0.1 14.5zm-0.6-45.2c-0.3 1.4-0.9 2.9-1 4.3-0.4 7.3 5.2 12.8 12.4 12.4 7.2-0.3 12-5.9 11.2-13-0.6-5.3-3.6-8.9-8.7-10.2-5.5-1.3-10.1 0.7-13.9 6.5z"/><path fill-rule="evenodd" class="b" d="m1116.1 921.1c-12 55.6-40.6 100.3-85.4 134.4-31.8 24.2-67.7 38.8-107.5 43.5-11.2 1.3-22.6 1.9-33.9 2-212.8 0.1-425.6 0-638.4 0.1-35.1 0-68.6-7.2-100-22.6-44.1-21.6-78-54-101.3-97.4-19.7-36.7-28.2-76-26.3-117.5 2-41.5 14.2-79.9 37.6-114.4 35.6-52.6 84.7-85.3 147.2-97 16.1-3 32.8-3.9 49.2-3.9 211.8-0.3 423.6-0.2 635.4-0.2 34.2 0 67.1 6.3 97.7 21.4 72.9 35.9 116.1 94.3 128.5 174.7 3.9 25.6 2.7 51.2-2.8 76.9zm-356.6 11.5c6.2 1.6 12.4 1.7 19.2-0.9 0.4-1.4 1.2-2.8 1.2-4.1q0.1-53.4 0-106.8c0-1.3-1.3-2.6-2.6-4.5-6.1 0.3-12.2 0.6-18.5 0.9 0 0-0.1-0.1-1 0.2-0.3 1.1-0.8 2.2-0.8 3.3q0 53.2 0.1 106.4c0 1.3 0.9 2.5 1.7 3.8 0 0 0.2 0.2 0.1 0.7 0 0 0.1 0.5 0.6 1zm-668.2-147.3c-3.9 8.4-8.4 16.6-11.7 25.3-7.3 18.7-11.3 38.2-11.5 59 0 0.5 0.1 0.9-0.1 2 0.1 0.5 0.1 1 0.1 2.2 0 0.7 0 1.4-0.1 3.1 0 24 4.9 47.2 14.5 69.1 4.8 10.8 11.6 20.7 17.5 31 0 0 0 0 0.1 0.7 12.1 17.8 26.9 32.9 44.5 45.3 31.9 22.7 67.5 34.1 106.6 33.9 42.4-0.3 80.4-13.9 113.4-40.6 23.9-19.3 42.3-43.1 54.2-72.5 10.2-25.7 15.1-52.3 13.3-80q-4.4-66.7-50.3-115.1c-10-10.6-20.9-20.4-33.9-27.7 0 0-0.1 0.1-0.3-0.5-11.3-5.7-22.3-12.1-34-16.7-10.1-3.9-21.1-5.7-32.3-8.7-0.4 0-0.9 0-1.9-0.5-4.2-0.4-8.3-0.8-13.2-1.5-0.7 0-1.4 0-2.9-0.2-14.9-1.3-29.7-1.1-44.1 2.2-12.4 2.9-24.5 7.1-37 10.7 0 0-0.2 0.2-1 0.1-24 9.6-44.8 23.9-62.6 42.6-10.5 11-19.9 22.7-26.6 36.5 0 0-0.1-0.1-0.7 0.3zm531.1 85.3c1.6 0.2 3.3 0.6 4.8 0.5 7.3-0.5 7.8-0.2 7.8 6.9 0 16 0 32 0 47.9 0.1 1.7 0.8 3.4 1.8 5.5 6.4 0 12.8 0 19.8 0 0-20.7 0-40.8 0-61.6 8 0 15.6 0 23 0 0-6.3 0-11.9 0-18-7.9 0-15.3 0-22.7 0-1.5-17.7 5-21.9 24.1-15.5 2.3-4.6 4.6-9.3 7.1-14.4-9.9-6.3-20.2-8.7-31.2-5.3-17.3 5.4-21.2 19.3-21 35.8-5.2 0-9.8 0-15.2 0 0.5 6.2 0.9 11.9 1.7 18.2zm-125.1-18.7c-0.4 1.4-0.9 2.8-1.3 4.3-5.5 20.6-3.3 40.1 9.7 57.4 17.7 23.5 50.3 23.8 69.2 16.9 21.7-7.9 35.2-28 35.9-53.3 0.6-21.2-6.3-39.5-24.1-52.1-27.1-19.2-73.7-12.4-89.4 26.8zm450 9.9c-15.1 18.4-13.6 47.8 3.6 62 13.9 11.5 30.1 11.9 46.8 7.5 7-1.9 13.2-5.2 17.6-10-4.1-4.7-7.8-9.1-11.4-13.3-22.3 14.5-45.1 4.7-45.3-9.4q2.9 0 5.9 0 21.8 0 43.5 0.1c14 0 14.1 0 12.8-14.2-1.2-12.9-6.1-24.1-18-30.6-16.8-9.3-41.7-7.1-55.5 7.9zm-105.4 37.7c0 10.5 0 21 0 31.7 6.8 0 13.1 0 19.9 0 0-13-0.1-25.6 0.1-38.3 0-3.3 0.3-6.7 1.1-9.8 2.5-9.5 11.6-15.9 21-15 9.6 0.9 16.2 7.8 17.2 18.2 0.1 2 0.1 4 0.1 6 0 11.7 0.1 23.3 0 35 0 3.2 1 4.6 4.3 4.4 4-0.2 8-0.1 12 0 2.8 0.1 4.2-0.8 4.2-3.9-0.2-14.7 0.5-29.4-0.4-44-0.9-13.9-6.9-25.6-20.5-31.3-13.2-5.6-25.4-3-36.4 5.9-1 0.7-2.1 1.4-3.3 2.2-0.6-3.5-1.1-6.5-1.7-9.8-5.9 0-11.5 0-17.6 0 0 16.1 0 31.9 0 48.7zm-97.2-46.5c-1.5-0.3-3.1-0.8-4.7-0.9-5-0.1-10 0.1-15-0.1-1.2-0.1-3.3-1.1-3.3-1.8-0.4-5-0.2-10 3.4-14.1 3.3-3.7 7.6-3.9 12-2.8 3 0.7 5.8 2 9 3.1 2.3-5 4.5-9.7 6.8-14.6-11.3-7.3-22.9-8.9-34.7-3.9-11.3 4.8-16.1 14.4-16.9 26.2-0.1 1.5 0.2 3.2-0.4 4.4-0.7 1.4-2.1 3.2-3.5 3.4-3.5 0.5-7.1 0.2-10.9 0.2 0 6.1 0 11.7 0 17.9 4.8 0 9.4 0 14.6 0 0 20.7 0 40.9 0 61.3 7 0 13.4 0 20.5 0 0-20.5 0-40.7 0-61.5 8.1 0 15.5 0 23.4 0 0-5.7 0-10.8-0.3-16.8zm75.8 75c0-25.6 0-51.2 0-76.8-7.1 0-13.5 0-20 0 0 26.9 0 53.4 0 80.4 6.1 0 11.7 0.2 17.3-0.1 1 0 1.8-1.7 2.7-3.5zm-18.9-107.9c-4 4.7-4 9.7-1.3 14.8 2.3 4.2 7.8 6 13.2 4.9 5.2-1.2 7.8-4.8 8.6-9.8 0.8-4.8-0.9-9.1-5.1-11.6-5-2.9-10.2-2.6-15.4 1.7z"/><path class="c" d="m770.6 113.6c27.6-25.4 59.7-41.4 96.5-46.2 64-8.5 118.6 11 162.2 58.7 33.6 36.7 48.9 80.9 46.3 130.6-2.7 51.6-24 94.9-63.4 128.8-32.4 27.9-70 42.3-112.7 43.9-80.5 3-153.2-48.8-177.8-123.1-20.2-61-10.3-117.6 27.4-169.3 6.1-8.4 14.1-15.5 21.5-23.4z"/><path fill-rule="evenodd" class="d" d="m136.8 208.8c16.5-19.7 43.1-26.1 68.4-16.9 21.5 7.7 35.7 29.4 35.8 54.4 0.1 19.2-5.8 36-20.9 48.6-8 6.7-17.4 10.4-27.7 11.6-19.7 2.1-38.2-0.8-52.5-15.7-15.9-16.6-19.3-36.9-14.2-58.5 1.9-8.1 7.1-15.5 11.1-23.5zm79.6 21.5c-10.4-28-47.9-28.7-62.8-9.4-8.1 10.5-10 22.7-7.7 35.4 2.3 12.8 8.4 23.4 21.3 28 13.5 4.8 27 4.4 38.8-4.8 12.9-10.2 17.2-30.7 10.4-49.2z"/><path fill-rule="evenodd" class="d" d="m584.4 221.6c28 2.4 38.5 24.9 35.1 49.4-20.4 0-40.8 0-61.2 0-0.6 6.2 3.5 11.9 10 14.8 10.3 4.4 22.1 2.8 34.6-4.8 4 4.1 8 8.2 12.3 12.5-8.1 8.2-18 11.9-28.8 12.8-17.6 1.5-33.6-2.2-43.5-18.2-9.3-15-9.6-31.4-1.1-46.7 9-16.2 24.4-21.1 42.6-19.8zm13.4 33.3c2.8 0.2 2.7-1.4 2.1-3.4-2.6-8.4-12.6-13.6-23.2-12.2-10.1 1.3-17.2 7.2-18.5 15.6 13 0 25.8 0 39.6 0z"/><path class="d" d="m257.3 224.6c5.3-0.7 10.4-1 15.4-1 1 0 2.4 1.6 2.7 2.7 0.7 2 0.7 4.2 1.1 7.2 1.7-1.1 3-1.8 4.2-2.8 11-8.8 23.2-10.9 36-5.4 12.7 5.5 19.1 16.5 19.9 29.7 0.9 16.2 0.2 32.6 0.2 49.3-6.5 0-12.9 0-19.9 0 0-7.3 0-14.4 0-21.5 0-6.7 0-13.3 0-20-0.1-13-7.3-21.6-18.4-21.8-11.8-0.3-21 8.8-21.3 21.7-0.3 12.8-0.1 25.6-0.1 38.4 0 1-0.2 2-0.4 3.2-6.3 0-12.6 0-19.5 0 0-26.5 0-52.9 0.1-79.7z"/><path class="d" d="m521 301.6c-0.7 1.3-1.2 2.9-1.9 2.9-5.9 0.2-11.9 0.1-18.3 0.1 0-11.9 0.1-23.2 0-34.5-0.1-4.6-0.1-9.4-1-13.9-1.6-8.8-7.5-14.2-15.7-15.1-8.8-1-17.1 3.2-20.3 11.2-1.7 4.2-2.6 9-2.7 13.6-0.4 12.6-0.2 25.3-0.2 38.3-6.7 0-13 0-19.7 0 0-26.7 0-53.3 0-80.8 5.4 0 10.5-0.1 15.6 0.1 1 0.1 2.3 1.7 2.6 2.8 0.6 2 0.6 4.2 0.9 7.2 2.4-1.6 4.5-2.8 6.3-4.3 16.6-13.4 48.5-8 53.2 23.1 1.6 11.1 0.9 22.6 1.1 33.9 0.2 5 0.1 10 0.1 15.4z"/><path class="e" d="m377.9 264c0 13.6 0 26.8 0 40.3-6.7 0-13.1 0-19.8 0 0-37.9 0-75.6 0-113.7 6.5 0 12.8 0 19.8 0 0 24.4 0 48.7 0 73.4z"/><path class="f" d="m399.3 241c0-5 0-9.5-0.1-14 0-2.4 0.9-3.6 3.5-3.6 4.5 0.1 9-0.3 13.4 0.1 1.3 0.1 3.5 2.2 3.5 3.4q0.2 37.1 0 74.3c0 1.1-1.8 3.3-2.8 3.3-5.6 0.4-11.2 0.2-17.5 0.2 0-21.4 0-42.3 0-63.7z"/><path class="f" d="m398.9 196c3.6-5.5 8.2-7.5 13.7-6.2 5.1 1.3 8.1 4.9 8.7 10.2 0.8 7.1-4 12.7-11.2 13-7.2 0.4-12.8-5.1-12.4-12.4 0.1-1.4 0.7-2.9 1.2-4.6z"/><path fill-rule="evenodd" class="g" d="m182 706c0 0 0.2-0.2 0.8-0.1 5.2-0.7 9.9-1.5 14.5-2.2 3.1-0.5 6.8 0 9.2-1.5 6.7-4.2 14.1-5.2 21.6-6.2 3.5-0.5 7.1-1.7 10.6-1.8 7.3 0 14.6 0.6 21.8 0.7 1.2 0 2.4-1.1 3.5-1.7 0.8-0.1 1.5-0.1 2.7 0.4 2.7 3.8 9.3 4.4 13.3 1.5 0.4 0 0.9 0 1.7 0.5 5.7 2.8 10.7 5.9 14.2 5.1 15.3 4.1 27.1 10.5 39.9 16.4-1.7 1.5-2.6 2.2-3.5 3 1.9 0.6 3.3 0.1 4.8-0.2 1.2-0.3 2.5-0.5 3.7-0.4 2.3 0.4 4.7 1 7 1.6 0 0 0.1-0.1 0.1 0.4 0 3.4 0 6.2 3.6 7.2 1.8 0.5 4.4 0.9 5.1 2.1 0.8 1.4-0.3 3.8-0.6 6 1.9-0.4 4.1-1.3 6.1-1.1 1.1 0.1 2.7 2.4 2.6 3.4-0.4 3.5 1 5.3 4.4 5.5 1.3 0 3.1 1.3 3.6 2.5 0.7 1.4 0.3 3.2 0.2 5 0-0.1 0.1-0.1 0.4-0.2 1.2-0.9 2.1-1.8 3.8-3.6 3.1 3.6 6.2 6.9 9.1 10.5 1.5 1.8 2.5 3.9 3.7 5.9 1.4 1.5 4 2.5 5.2 4.3 1.2 1.9 1 4.7 1.3 6.9 9.5 1.8 7.6 10 8.6 16.5 3.8-2.6 6-0.2 6.7 2.1 1.3 4.3 1.6 9 2.2 13.5q0 0 0.3-0.2c0.6-0.7 0.9-1.3 1.7-2.9 2.9 8.6 5.5 16.3 7.9 24.2-0.2 0.5-0.2 0.8-0.2 1.2 0.2-0.4 0.3-0.9 0.7-1.1 1 2.9 2.4 5.6 2.6 8.3 1.1 14.9 3.7 29.8 2.3 44.8-0.4 4.1-0.9 8.2-1.2 12.4-0.3 5.8-0.5 11.7-0.8 17.4-2.1 0.8-3.6 1.4-5.9 2.2 4.1 2.7 5.2 4.9 0.4 6.9-0.7 0.3-1.7 1.8-1.6 2.5 1.7 6.3-0.2 11.9-3.4 17.4-1.2 1.6-2.2 3.1-2.8 4.8-1.4 3.4-2.3 6.9-3.9 10.1-2.1 4.3-4.7 8.4-7 12.5q-2.5 0.8-5 1.5c0 0 0 0-0.4 0.1-0.5 1.5-0.6 2.9-0.9 4.4-0.4 1.4-0.4 3.6-1.4 4.2-6.4 3.7-6.8 12.9-14.3 15.5-0.2 0.1-0.4 0.5-0.4 0.8 0.1 5.6-3.6 6.6-7.9 6.3-0.6 2.6-0.8 6.4-1.8 6.7-4.1 1-5.9 5-8.6 6.4-4.7 2.6-9.3 5.1-13.4 8.5-0.1-0.2-0.2-0.3-0.3-0.3 0.2 0.1 0.3 0.3 0.4 0.7-7.6 4.7-13.8 12.3-23.4 10.9-0.8 2.5-2 5-3.7 5.5-4.3 1.2-8.2 4.4-13.2 2.5-1.3-0.5-3.5 1.1-5.2 2-2.7 1.5-5.1 4.2-7.9 4.5-11 1.1-21.7 6.3-33.2 3.4-1.1-0.3-2.3 0.1-3.5 0.2-2.9 0.3-5.9 0.6-8.8 0.9-2.1 0.2-4.3 0.4-6.4 0.4-4.9 0-9.9 0.5-14.6-0.3-6.8-1.2-13.1-5-20.4-4.3-1.6 0.2-3.5-0.6-5-1.3-2.7-1.3-5.1-3.4-7.8-4.2-3.5-1-7.3-1-10.9-1.5 0 0 0 0-0.3-0.3-9-3.6-18.2-5.9-25.1-13.6 1.9-1 2.9-1.6 3.8-2-4.6-0.8-10.4 0-13.2-2.5-4.5-3.9-11.4-6.3-12-13.6 0.5-0.1 0.8-0.3 1.1-0.4q-0.1-0.2-0.3-0.3c-0.3 0.2-0.7 0.5-1.4 0.7-4 1.2-5.6 0.4-5.9-3.9-0.1-1.8-3.1-4.8-4.8-4.8-7.1 0-5.9-9-11.6-10.1 0.1-0.7 0.4-1.3 0.4-2 0.1-1.2 0-2.4 0-4.7-6.5 2.6-8.9-1.8-11.7-5.7-0.8-1-2.7-1.2-4-1.8 0 0 0 0 0-0.4-0.4-3.2-0.7-6-1.3-8.7-0.4-2.1-1-4.2-1.6-6.4-1.4-0.5-4.6-0.7-5.6-2.3-2-3.1-2.9-6.9-4.1-10.5-2.4-6.9-3.4-14.5-8.9-20.1-1-0.9-1.2-2.7-1.5-4.1-1-4.3-2.5-8.6-2.8-12.9-0.5-6.8-3.5-13.2-2.1-20.4 1-5.2 0.1-10.8-3.9-15.2-0.1-0.8-0.1-1.5 0.2-2.7 0.2-1 0-1.7-0.2-2.3 0-0.5-0.1-0.9 0.2-1.9 1.1-2.5 2.2-4.4 2.5-6.5 0.5-4 0.1-8.1 0.9-12.1 1-5.3 3.3-10.5 4-15.8 0.7-5.6 0.8-11.1 4.1-16.1 1.8-2.8 4-6.3 3.8-9.4-0.4-7 3.7-10.7 8.2-14.5q0-4.9 0-9.8c0 0 0.1 0.1 0.4 0.1 2.7-2.5 5.3-4.7 7.2-7.4 3.3-4.7 5.3-10.8 9.5-14.5 4.3-3.7 5.4-11.1 12.8-11.3 0.3-0.1 1-0.7 1-1-0.6-7 10.7-5 9.5-12.5 0-0.3 1.8-0.8 2.5-1.4 2.7-2.6 7.8-1.8 9.1-6.6 0.2-0.6 2.5-1.3 3.5-0.9 3 0.9 4 0.1 4-2.9 0-1 1-2.2 1.9-2.7 5.6-3 11.3-5.8 16.9-8.8 4.4-2.3 9.4-4 11.8-9zm190.9 46.1q-0.1 0 0 0 0 0 0 0zm41 55.9q-0.1 0.1 0 0.1 0 0 0-0.1zm-315-23.3q1.3-0.2 2.7-0.4-0.4-0.9-0.8-1.8c-0.8 0.6-1.6 1.2-1.9 2.2z"/><path fill-rule="evenodd" class="h" d="m497.4 851.5c15.6-38.8 62.2-45.6 89.3-26.4 17.8 12.6 24.7 30.9 24.1 52.1-0.7 25.3-14.2 45.4-35.9 53.3-18.9 6.9-51.5 6.6-69.2-16.9-13-17.3-15.2-36.8-9.7-57.4 0.4-1.5 0.9-2.9 1.4-4.7zm20.7 40.7c10.3 27.6 46.2 26.1 59.8 12.8 10.6-10.4 14.6-30.8 8.4-47.1-5.1-13.3-14.8-21.1-28.9-22.8-14.4-1.6-26.9 2.6-35.4 14.8-8.9 12.9-8.9 27.1-3.9 42.3z"/><path fill-rule="evenodd" class="i" d="m947.5 861.5c13.6-14.7 38.5-16.9 55.3-7.6 11.9 6.5 16.8 17.7 18 30.6 1.3 14.2 1.2 14.2-12.8 14.2q-21.7-0.1-43.5-0.1-3 0-5.9 0c0.2 14.1 23 23.9 45.3 9.4 3.6 4.2 7.3 8.6 11.4 13.3-4.4 4.8-10.6 8.1-17.6 10-16.7 4.4-32.9 4-46.8-7.5-17.2-14.2-18.7-43.6-3.4-62.3zm53.4 18.4c-2-10.1-12.5-14.3-22.1-13.6-11 0.9-18.4 6.8-19.6 15 0.5 0.2 0.9 0.5 1.4 0.5 12.6 0 25.2 0.1 37.8 0 0.9 0 1.7-0.7 2.5-1.9z"/><path class="j" d="m841.9 899c0-16.3 0-32.1 0-48.2 6.1 0 11.7 0 17.6 0 0.6 3.3 1.1 6.3 1.7 9.8 1.2-0.8 2.3-1.5 3.3-2.2 11-8.9 23.2-11.5 36.4-5.9 13.6 5.7 19.6 17.4 20.5 31.3 0.9 14.6 0.2 29.3 0.4 44 0 3.1-1.4 4-4.2 3.9-4-0.1-8-0.2-12 0-3.3 0.2-4.3-1.2-4.3-4.4 0.1-11.7 0-23.3 0-35 0-2 0-4-0.1-6-1-10.4-7.6-17.3-17.2-18.2-9.4-0.9-18.5 5.5-21 15-0.8 3.1-1.1 6.5-1.1 9.8-0.2 12.7-0.1 25.3-0.1 38.3-6.8 0-13.1 0-19.9 0 0-10.7 0-21.2 0-32.2z"/><path class="k" d="m744.8 853.4c0.2 5.6 0.2 10.7 0.2 16.4-7.9 0-15.3 0-23.4 0 0 20.8 0 41 0 61.5-7.1 0-13.5 0-20.5 0 0-20.4 0-40.6 0-61.3-5.2 0-9.8 0-14.6 0 0-6.2 0-11.8 0-17.9 3.8 0 7.4 0.3 10.9-0.2 1.4-0.2 2.8-2 3.5-3.4 0.6-1.2 0.3-2.9 0.4-4.4 0.8-11.8 5.6-21.4 16.9-26.2 11.8-5 23.4-3.4 34.7 3.9-2.3 4.9-4.5 9.6-6.8 14.6-3.2-1.1-6-2.4-9-3.1-4.4-1.1-8.7-0.9-12 2.8-3.6 4.1-3.8 9.1-3.4 14.1 0 0.7 2.1 1.7 3.3 1.8 5 0.2 10 0 15 0.1 1.6 0.1 3.2 0.6 4.8 1.3z"/><path class="j" d="m622 870.1c-0.4-5.8-0.8-11.5-1.3-17.7 5.4 0 10 0 15.2 0-0.2-16.5 3.7-30.4 21-35.8 11-3.4 21.3-1 31.2 5.3-2.5 5.1-4.8 9.8-7.1 14.4-19.1-6.4-25.6-2.2-24.1 15.5 7.4 0 14.8 0 22.7 0 0 6.1 0 11.7 0 18-7.4 0-15 0-23 0 0 20.8 0 40.9 0 61.6-7 0-13.4 0-20.1-0.6-0.3-20.7-0.3-40.6-0.3-60.7-5.3 0-9.7 0-14.2 0z"/><path class="j" d="m759 931.1c0 0-0.2-0.2-0.4-0.7-0.2-31.6-0.2-62.7-0.2-93.8 0-6.5 0.2-13 0.3-19.5 0 0 0.1 0.1 0.6 0.1 5.2 0 9.9-0.1 14.9 0 3.2 0.1 3.9 1.5 3.9 4.2 0 35.4 0 70.8-0.1 106.2 0 1.3-1.6 2.7-2.7 4-0.8 0.1-1.4 0.2-2.3 0-5-0.2-9.5-0.4-14-0.5z"/><path class="h" d="m820.6 928.5c-1 1.3-1.8 3-2.8 3-5.6 0.3-11.2 0.1-17.3 0.1 0-27 0-53.5 0-80.4 6.5 0 12.9 0 20 0 0 25.6 0 51.2 0.1 77.3z"/><path fill-rule="evenodd" class="l" d="m100 977.4c1.3 0.2 3.2 0.4 4 1.4 2.8 3.9 5.2 8.3 11.7 5.7 0 2.3 0.1 3.5 0 4.7 0 0.7-0.3 1.3-0.4 2 5.7 1.1 4.5 10.1 11.6 10.1 1.7 0 4.7 3 4.8 4.8 0.3 4.3 1.9 5.1 5.9 3.9 0.4 0 0.4 0 0.4 0 0.8 7.3 7.7 9.7 12.2 13.6 2.8 2.5 8.6 1.7 13.2 2.5-0.9 0.4-1.9 1-3.8 2 6.9 7.7 16.1 10 24.9 13.6-0.3 0.4-0.6 0.6-0.8 0.7q0.6-0.2 1.3-0.4c3.6 0.5 7.4 0.5 10.9 1.5 2.7 0.8 5.1 2.9 7.8 4.2 1.5 0.7 3.4 1.5 5 1.3 7.3-0.7 13.6 3.1 20.4 4.3 4.7 0.8 9.7 0.3 14.6 0.3 2.1 0 4.3-0.2 6.4-0.4 2.9-0.3 5.9-0.6 8.8-0.9 1.2-0.1 2.4-0.5 3.5-0.2 11.5 2.9 22.2-2.3 33.2-3.4 2.8-0.3 5.2-3 7.9-4.5 1.7-0.9 3.9-2.5 5.2-2 5 1.9 8.9-1.3 13.2-2.5 1.7-0.5 2.9-3 3.7-5.5 9.6 1.4 15.8-6.2 23.4-10.9 0-0.3 0-0.3 0-0.3 4-3.5 8.6-6 13.3-8.6 2.7-1.4 4.5-5.4 8.6-6.4 1-0.3 1.2-4.1 1.8-6.7 4.3 0.3 8-0.7 7.9-6.3 0-0.3 0.2-0.7 0.4-0.8 7.5-2.6 7.9-11.8 14.3-15.5 1-0.6 1-2.8 1.4-4.2 0.3-1.5 0.4-2.9 1-4.1 0.8 0.8 1.3 1.4 1.7 1.9q0.4-0.4 0.7-0.9-1-0.7-2.1-1.4 2.5-0.7 5-1.5c2.3-4.1 4.9-8.2 7-12.5 1.6-3.2 2.5-6.7 3.9-10.1 0.6-1.7 1.6-3.2 2.8-4.8 0.3-0.1 0.3-0.1 0.3 0.2 0.3 1.1 0.6 1.8 1 2.7 0.1 0.1 0.3 0.4 0.3 0.4-11.4 28.8-29.8 52.6-53.7 71.9-33 26.7-71 40.3-113.4 40.6-39.1 0.2-74.7-11.2-106.6-33.9-17.6-12.4-32.4-27.5-44.6-45.6zm38 32.6q0 0 0 0 0 0 0 0zm191.2 25.8q-0.1-0.3-0.2-0.6c0 0.2-0.1 0.4 0.2 0.6z"/><path class="l" d="m414 808c-0.7-4.5-1-9.2-2.3-13.5-0.7-2.3-2.9-4.7-6.7-2.1-1-6.5 0.9-14.7-8.6-16.5-0.3-2.2-0.1-5-1.3-6.9-1.2-1.8-3.8-2.8-5.2-4.3-1.2-2-2.2-4.1-3.7-5.9-2.9-3.6-6-6.9-9.1-10.5-1.7 1.8-2.6 2.7-3.8 3.6-0.3 0.1-0.3 0.1-0.3 0.1 0-1.6 0.4-3.5-0.3-4.9-0.5-1.2-2.3-2.5-3.6-2.5-3.4-0.2-4.8-2-4.4-5.5 0.1-1-1.5-3.3-2.6-3.4-2-0.2-4.2 0.7-6.1 1.1 0.3-2.2 1.4-4.6 0.6-6-0.7-1.2-3.3-1.6-5.1-2.1-3.6-1-3.6-3.8-3.6-7.1 13 6.7 23.9 16.5 33.9 27.1q45.9 48.4 50.3 115.1c1.8 27.7-3.1 54.3-13.5 80.3-0.3 0.3-0.5 0-0.6-0.5-0.4-1.1-0.7-1.9-1-2.6q0 0 0 0c2.9-5.4 4.8-11 3.1-17.3-0.1-0.7 0.9-2.2 1.6-2.5 4.8-2 3.7-4.2-0.4-6.9 2.3-0.8 3.8-1.4 5.9-2.2 0.3-5.7 0.5-11.6 0.8-17.4 0.3-4.2 0.8-8.3 1.2-12.4 1.4-15-1.2-29.9-2.3-44.8-0.2-2.7-1.6-5.4-2.6-8.3-0.3-0.2-0.3-0.2-0.3-0.2-2.6-7.8-5.2-15.5-8.1-24.1-0.8 1.6-1.1 2.2-1.7 2.9-0.2 0.2-0.2 0.2-0.2 0.2z"/><path class="k" d="m801.9 819.9c4.9-4.1 10.1-4.4 15.1-1.5 4.2 2.5 5.9 6.8 5.1 11.6-0.8 5-3.4 8.6-8.6 9.8-5.4 1.1-10.9-0.7-13.2-4.9-2.7-5.1-2.7-10.1 1.6-15z"/><path class="l" d="m181.6 706c-2 5-7 6.7-11.4 9-5.6 3-11.3 5.8-16.9 8.8-0.9 0.5-1.9 1.7-1.9 2.7 0 3-1 3.8-4 2.9-1-0.4-3.3 0.3-3.5 0.9-1.3 4.8-6.4 4-9.1 6.6-0.7 0.6-2.5 1.1-2.5 1.4 1.2 7.5-10.1 5.5-9.5 12.5 0 0.3-0.7 0.9-1 1-7.4 0.2-8.5 7.6-12.8 11.3-4.2 3.7-6.2 9.8-9.5 14.5-1.9 2.7-4.5 4.9-7.2 7.3 6.4-13.7 15.8-25.4 26.3-36.4 17.8-18.7 38.6-33 63-42.5z"/><path class="l" d="m68.1 876.4c4.1 4 5 9.6 4 14.8-1.4 7.2 1.6 13.6 2.1 20.4 0.3 4.3 1.8 8.6 2.8 12.9 0.3 1.4 0.5 3.2 1.5 4.1 5.5 5.6 6.5 13.2 8.9 20.1 1.2 3.6 2.1 7.4 4.1 10.5 1 1.6 4.2 1.8 5.6 2.3 0.6 2.2 1.2 4.3 1.6 6.4 0.6 2.7 0.9 5.5 1.3 8.7-5.9-9.9-12.7-19.8-17.5-30.6-9.6-21.9-14.5-45.1-14.4-69.6z"/><path class="l" d="m91.6 785.1c0.3 3.1 0.3 6.3 0.3 9.6-4.5 3.8-8.6 7.5-8.2 14.5 0.2 3.1-2 6.6-3.8 9.4-3.3 5-3.4 10.5-4.1 16.1-0.7 5.3-3 10.5-4 15.8-0.8 4-0.4 8.1-0.9 12.1-0.3 2.1-1.4 4-2.4 6.2-0.2-20 3.8-39.5 11.1-58.2 3.3-8.7 7.8-16.9 12-25.5z"/><path class="l" d="m263.6 693c-0.7 0.8-1.9 1.9-3.1 1.9-7.2-0.1-14.5-0.7-21.8-0.7-3.5 0.1-7.1 1.3-10.6 1.8-7.5 1-14.9 2-21.6 6.2-2.4 1.5-6.1 1-9.2 1.5-4.6 0.7-9.3 1.5-14.4 2.2 11.8-3.7 23.9-7.9 36.3-10.8 14.4-3.3 29.2-3.5 44.4-2.1z"/><path class="m" d="m775.6 931.7c0.8-1.4 2.4-2.8 2.4-4.1 0.1-35.4 0.1-70.8 0.1-106.2 0-2.7-0.7-4.1-3.5-4.2 1.2-0.3 2.3-0.3 3.4-0.4 0.6 1.4 1.9 2.7 1.9 4q0.1 53.4 0 106.8c0 1.3-0.8 2.7-2 4.2-1.3 0.1-1.8 0-2.3-0.1z"/><path class="l" d="m347.7 720.8c-2.2-0.3-4.6-0.9-6.9-1.3-1.2-0.1-2.5 0.1-3.7 0.4-1.5 0.3-2.9 0.8-4.8 0.2 0.9-0.8 1.8-1.5 3.5-3-12.8-5.9-24.6-12.3-39.9-16.4-3.5 0.8-8.5-2.3-13.9-5 10.5 2.4 21.5 4.2 31.6 8.1 11.7 4.6 22.7 11 34.1 17z"/><path class="n" d="m758.2 817.3c0.4 6.3 0.2 12.8 0.2 19.3 0 31.1 0 62.2 0.1 93.8-0.5-0.8-1.4-2-1.4-3.3q-0.1-53.2-0.1-106.4c0-1.1 0.5-2.2 1.2-3.4z"/><path class="n" d="m622.2 870.3c4.3-0.2 8.7-0.2 14-0.2 0 20.1 0 40 0 60.5-0.4-1.3-1.1-3-1.2-4.7 0-15.9 0-31.9 0-47.9 0-7.1-0.5-7.4-7.8-6.9-1.5 0.1-3.2-0.3-5-0.8z"/><path class="l" d="m279.7 694.9c-3.7 3.1-10.3 2.5-12.7-1.2 4.1 0.1 8.2 0.5 12.7 1.2z"/><path class="n" d="m775.3 931.6c0.8 0.2 1.3 0.3 2.3 0.5-5.7 2.2-11.9 2.1-17.9 0.2 4.7-0.3 9.2-0.4 13.7-0.5 0.5 0 1.1-0.1 1.9-0.2z"/><path class="n" d="m777.6 816.6c-0.7 0.3-1.8 0.3-3.4 0.4-5 0.1-9.7 0.2-14.8 0.2 5.7-0.3 11.8-0.6 18.2-0.6z"/><path class="m" d="m773 931.6c-4.1 0.3-8.6 0.4-13.6 0.5-0.4 0-0.5-0.5-0.4-0.7 4.5-0.2 9 0 14 0.2z"/><path class="l" d="m68.1 871.3c0.3 0.3 0.5 1 0.4 1.7-0.4-0.4-0.4-0.9-0.4-1.7z"/><path class="o" d="m216.5 230.6c6.7 18.2 2.4 38.7-10.5 48.9-11.8 9.2-25.3 9.6-38.8 4.8-12.9-4.6-19-15.2-21.3-28-2.3-12.7-0.4-24.9 7.7-35.4 14.9-19.3 52.4-18.6 62.9 9.7z"/><path class="o" d="m597.4 254.9c-13.4 0-26.2 0-39.2 0 1.3-8.4 8.4-14.3 18.5-15.6 10.6-1.4 20.6 3.8 23.2 12.2 0.6 2 0.7 3.6-2.5 3.4z"/><path class="l" d="m98.6 784.5c0.6-0.8 1.4-1.4 2.2-2q0.4 0.9 0.8 1.8c-0.9 0.2-1.8 0.3-3 0.2z"/><path class="l" d="m424 829q-0.2 0.6-0.4 1.3c0-0.4 0-0.7 0.2-1.2 0.2-0.1 0.2-0.1 0.2-0.1z"/><path class="l" d="m138 1010q0.5-0.4 1-0.7 0.2 0.1 0.3 0.3c-0.3 0.1-0.6 0.3-1.1 0.4-0.2 0-0.2 0-0.2 0z"/><path class="l" d="m414 808c-0.1 0-0.2 0.1-0.1 0.1 0.1-0.1 0.1-0.1 0.1-0.1z"/><path class="l" d="m373 752c-0.1 0-0.2 0.1-0.1 0.1 0.1-0.1 0.1-0.1 0.1-0.1z"/><path class="l" d="m349 1023q-0.2-0.2-0.4-0.4c0.1 0 0.2 0.1 0.3 0.3 0.1 0.1 0.1 0.1 0.1 0.1z"/><path class="p" d="m517.9 891.9c-4.8-14.9-4.8-29.1 4.1-42 8.5-12.2 21-16.4 35.4-14.8 14.1 1.7 23.8 9.5 28.9 22.8 6.2 16.3 2.2 36.7-8.4 47.1-13.6 13.3-49.5 14.8-60-13.1z"/><path class="n" d="m1000.9 880.3c-0.8 0.8-1.6 1.5-2.5 1.5-12.6 0.1-25.2 0-37.8 0-0.5 0-0.9-0.3-1.4-0.5 1.2-8.2 8.6-14.1 19.6-15 9.6-0.7 20.1 3.5 22.1 14z"/><path class="g" d="m398 970q1.1 0.7 2.1 1.4-0.3 0.5-0.7 0.9c-0.4-0.5-0.9-1.1-1.4-2 0-0.3 0-0.3 0-0.3z"/><path class="g" d="m417 941.3q0.5 0.6 0.9 2.2-0.5-0.6-0.9-2.2z"/><path class="g" d="m329 1035.8c-0.1-0.2 0-0.4 0-0.6 0.1 0.2 0.1 0.4 0 0.6z"/><path class="g" d="m185 1042q-0.7 0.2-1.3 0.4c0.2-0.1 0.5-0.3 1-0.4 0.3 0 0.3 0 0.3 0z"/></svg>