<svg xmlns="http://www.w3.org/2000/svg" version="1.1" xmlns:xlink="http://www.w3.org/1999/xlink" width="512" height="512" x="0" y="0" viewBox="0 0 66 66" style="enable-background:new 0 0 512 512" xml:space="preserve" class=""><circle r="33" cx="33" cy="33" fill="#0d1722" shape="circle"></circle><g transform="matrix(0.7,0,0,0.7,9.900000286102298,9.899474608898164)"><path d="M49.99 49.63c0 2.58-2.1 4.69-4.69 4.69s-4.69-2.11-4.69-4.69V29.35c0-8.2-6.68-14.88-14.88-14.88s-14.87 6.68-14.87 14.88v4.5c1.52-.64 3.19-.99 4.94-.99 1.87 0 3.64.4 5.24 1.13v-4.64a4.69 4.69 0 0 1 9.38 0v20.28c0 8.2 6.68 14.87 14.88 14.87s14.88-6.67 14.88-14.87V14.47H49.99zM26.53 19.57c0 .55-.44 1-1 1.01a8.736 8.736 0 0 0-8.2 6.27c-.16.54-.73.85-1.27.69s-.85-.73-.68-1.27a10.75 10.75 0 0 1 10.11-7.72c.56-.01 1.03.43 1.04.99zm8.11 5.61c.53-.19 1.11.09 1.3.62.39 1.14.59 2.33.59 3.54V34.32c0 .57-.45 1.02-1.01 1.02-.57 0-1.02-.45-1.02-1.02V29.34c0-.98-.17-1.95-.49-2.87-.18-.53.1-1.11.63-1.29zm1.73 28.58c-.53.19-1.11-.1-1.29-.63-.39-1.13-.58-2.3-.58-3.5v-6.04a1.016 1.016 0 1 1 2.03 0v6.04c0 .97.16 1.93.47 2.84.04.11.06.22.06.33 0 .42-.27.82-.69.96zm17.7-34.2c0-.56.45-1.01 1.01-1.01.57 0 1.02.45 1.02 1.01v6.12c0 .56-.45 1.01-1.02 1.01-.56 0-1.01-.45-1.01-1.01zm0 13.38c0-.56.45-1.01 1.01-1.01.57 0 1.02.45 1.02 1.01v12.33a1.016 1.016 0 1 1-2.03 0zm-.38 19.22a1.022 1.022 0 0 1 2 .3c0 .09-.02.19-.05.29a10.765 10.765 0 0 1-10.14 7.68c-.56.01-1.03-.44-1.04-1-.02-.51.44-1.03 1-1.04a8.73 8.73 0 0 0 8.23-6.23z" fill="#ffffff" opacity="1" data-original="#000000"></path><path d="M15.8 34.86c-5.93 0-10.75 4.82-10.75 10.75 0 5.92 10.75 18.9 10.75 18.9s10.75-12.98 10.75-18.9c0-5.93-4.82-10.75-10.75-10.75zm0 15.31c-2.52 0-4.56-2.04-4.56-4.56s2.04-4.56 4.56-4.56 4.56 2.04 4.56 4.56-2.04 4.56-4.56 4.56zM60.78 2.58c-1.54-1.92-3.24-.87-4.36-.17-1.17.73-1.66.94-2.24.35v-.25c0-.42-.34-.75-.75-.75-.42 0-.75.33-.75.75v9.96h1.5v-2.38c.22.07.43.12.65.12.89 0 1.73-.52 2.38-.92 1.28-.8 1.75-.99 2.4-.17.21.25.54.34.84.23.3-.1.5-.38.5-.7v-5.6c0-.17-.06-.34-.17-.47z" fill="#ffffff" opacity="1" data-original="#000000"></path></g></svg>