<svg version="1.2" xmlns="http://www.w3.org/2000/svg" viewBox="0 0 1440 1152" width="1000" height="800"><defs><clipPath clipPathUnits="userSpaceOnUse" id="cp1"><path d="m1440 1152h-1440v-1152h1440z"/></clipPath></defs><style>.a{fill:#414141}.b{fill:#d9d9d9}</style><path class="a" d="m-43-54h1581v1291h-1581z"/><g clip-path="url(#cp1)"><path class="b" d="m758.4 867v-893.5h-36v893.5z"/><path class="b" d="m756.4 1917v-893.5h-36v893.5z"/><path class="b" d="m558.6-29.9h-3v-32h3z"/><path class="b" d="m558.6 289.3h-3v63.9h3z"/><path class="b" d="m558.6 161.6h-3v63.9h3z"/><path class="b" d="m558.6 417h-3v63.8h3z"/><path class="b" d="m558.6 33.9h-3v63.9h3z"/><path class="b" d="m558.6 800.1h-3v63.8h3z"/><path class="b" d="m558.6 672.4h-3v63.8h3z"/><path class="b" d="m558.6 544.7h-3v63.8h3z"/><path class="b" d="m361.5-29.9h-3v-32h3z"/><path class="b" d="m361.5 1119.3h-3v-63.9h3zm0-127.7h-3v-63.8h3zm0-127.7h-3v-63.8h3zm0-127.7h-3v-63.9h3zm0-127.6h-3v-63.9h3zm0-127.7h-3v-63.8h3zm0-127.7h-3v-63.8h3zm0-127.7h-3v-63.9h3zm0-127.7h-3v-63.8h3z"/><path class="b" d="m361.5 1215.1h-3v-32h3z"/><path class="b" d="m164.4-29.9h-3v-32h3z"/><path class="b" d="m164.4 1119.3h-3v-63.9h3zm0-127.7h-3v-63.8h3zm0-127.7h-3v-63.8h3zm0-127.7h-3v-63.9h3zm0-127.6h-3v-63.9h3zm0-127.7h-3v-63.8h3zm0-127.7h-3v-63.8h3zm0-127.7h-3v-63.9h3zm0-127.7h-3v-63.8h3z"/><path class="b" d="m164.4 1215.1h-3v-32h3z"/><path class="b" d="m1294.4-29.9h-3v-32h3z"/><path class="b" d="m1294.4 1119.3h-3v-63.9h3zm0-127.7h-3v-63.8h3zm0-127.7h-3v-63.8h3zm0-127.7h-3v-63.9h3zm0-127.6h-3v-63.9h3zm0-127.7h-3v-63.8h3zm0-127.7h-3v-63.8h3zm0-127.7h-3v-63.9h3zm0-127.7h-3v-63.8h3z"/><path class="b" d="m1294.4 1215.1h-3v-32h3z"/><path class="b" d="m1097.3-29.9h-3v-32h3z"/><path class="b" d="m1097.3 1119.3h-3v-63.9h3zm0-127.7h-3v-63.8h3zm0-127.7h-3v-63.8h3zm0-127.7h-3v-63.9h3zm0-127.6h-3v-63.9h3zm0-127.7h-3v-63.8h3zm0-127.7h-3v-63.8h3zm0-127.7h-3v-63.9h3zm0-127.7h-3v-63.8h3z"/><path class="b" d="m1097.3 1215.1h-3v-32h3z"/><path class="b" d="m900.2-29.9h-3v-32h3z"/><path class="b" d="m900.2 289.3h-3v63.9h3z"/><path class="b" d="m900.2 161.6h-3v63.9h3z"/><path class="b" d="m900.2 33.9h-3v63.9h3z"/><path class="b" d="m900.2 800.1h-3v63.8h3z"/><path class="b" d="m900.2 672.4h-3v63.8h3z"/><path class="b" d="m900.2 417h-3v63.8h3z"/><path class="b" d="m900.2 544.7h-3v63.8h3z"/></g></svg>