<svg xmlns="http://www.w3.org/2000/svg" version="1.1" xmlns:xlink="http://www.w3.org/1999/xlink" width="512" height="512" x="0" y="0" viewBox="0 0 609.668 609.668" style="enable-background:new 0 0 512 512" xml:space="preserve" class=""><circle r="304.834" cx="304.834" cy="304.834" fill="#0d1722" shape="circle"></circle><g transform="matrix(0.7,0,0,0.7,91.45019760131837,91.45038574913926)"><path fill-rule="evenodd" d="M559.862 418.444 423.96 556.697a31.353 31.353 0 0 1-21.228 9.384l-206.922.044a54.325 54.325 0 0 0-43.12 21.206l-12.639 14.718a21.77 21.77 0 0 1-16.525 7.62H21.797c-12.024 0-21.772-9.748-21.772-21.772V574.54a21.773 21.773 0 0 1 5.683-14.653l56.607-62.159a1336.04 1336.04 0 0 1 21.348-21.859 162.197 162.197 0 0 1 123.034-51.262 64.227 64.227 0 0 1 41.367 14.805 31.644 31.644 0 0 0 20.139 6.967h121.858a23.59 23.59 0 0 1 22.861 16.329c.092.564.223 1.12.392 1.666.176.876.285 1.764.327 2.656a21.774 21.774 0 0 1-21.772 22.916h-130.71c-6.012 0-10.886 4.874-10.886 10.886s4.874 10.886 10.886 10.886h130.687a43.543 43.543 0 0 0 43.544-45.722v-.501l94.709-79.261c8.986-7.561 22.327-6.722 30.296 1.904 7.968 8.626 7.748 21.992-.5 30.351z" clip-rule="evenodd" fill="#ffffff" opacity="1" data-original="#000000" class=""></path><path d="M206.86 119.796c.121-32.357 23.869-59.769 55.878-64.5a54.384 54.384 0 0 1 9.438-.816c27.607.119 52.176 17.534 61.43 43.544h-28.663a43.424 43.424 0 0 0-43.544 45.721 44.133 44.133 0 0 0 29.784 38.569 65.318 65.318 0 0 1-84.323-62.518zm97.974 206.835-32.658 32.658-32.658-32.658V200.473a86.752 86.752 0 0 0 21.772 5.661v76.953c0 6.012 4.874 10.886 10.886 10.886s10.886-4.874 10.886-10.886v-76.953a86.63 86.63 0 0 0 21.772-5.585zm206.835-141.519h-21.663a64.228 64.228 0 0 1-41.302-14.816 31.683 31.683 0 0 0-20.204-6.956H306.685c-12.048.325-22.31-8.693-23.536-20.683a21.655 21.655 0 0 1 21.772-22.861h130.633c6.012 0 10.886-4.874 10.886-10.886s-4.874-10.886-10.886-10.886h-79.185c-8.514-32.562-34.952-57.354-67.994-63.76l27.498-25.038A35.195 35.195 0 0 1 347.715.942l196.613 51.056v100.456c-.001 18.037-14.622 32.658-32.659 32.658zm97.974-10.886c0 6.012-4.874 10.886-10.886 10.886h-21.772c-6.012 0-10.886-4.874-10.886-10.886V43.594c0-6.012 4.874-10.886 10.886-10.886h21.772c6.012 0 10.886 4.874 10.886 10.886z" fill="#ffffff" opacity="1" data-original="#000000" class=""></path></g></svg>